<svg width="1569" height="468" viewBox="0 0 1569 468" fill="none" xmlns="http://www.w3.org/2000/svg">
<path d="M599.2 200H565.18V142.04C556.64 145.12 548.87 147.43 541.87 148.97C535.01 150.51 528.22 151.28 521.5 151.28C508.34 151.28 497.98 147.92 490.42 141.2C483 134.34 479.29 124.61 479.29 112.01V50.06H513.31V102.98C513.31 110.26 514.71 115.72 517.51 119.36C520.45 123 525.42 124.82 532.42 124.82C537.18 124.82 542.22 124.19 547.54 122.93C552.86 121.67 558.74 119.78 565.18 117.26V50.06H599.2V200ZM714.746 200H632.426V50.06H714.746V76.1H666.446V109.07H711.386V135.11H666.446V173.75H714.746V200ZM803.048 74.42C798.008 74.42 793.458 75.61 789.398 77.99C785.478 80.37 782.118 83.8 779.318 88.28C776.518 92.62 774.418 97.94 773.018 104.24C771.618 110.54 770.918 117.61 770.918 125.45C770.918 136.09 772.108 145.19 774.488 152.75C776.868 160.17 780.508 165.84 785.408 169.76C790.308 173.68 796.538 175.64 804.098 175.64C810.118 175.64 815.998 174.94 821.738 173.54C827.618 172.14 833.708 170.18 840.008 167.66V194.33C833.848 196.99 827.618 198.95 821.318 200.21C815.018 201.47 808.158 202.1 800.738 202.1C785.758 202.1 773.508 198.95 763.988 192.65C754.468 186.21 747.398 177.25 742.778 165.77C738.298 154.15 736.058 140.64 736.058 125.24C736.058 113.9 737.528 103.54 740.468 94.16C743.408 84.64 747.748 76.45 753.488 69.59C759.228 62.73 766.228 57.41 774.488 53.63C782.888 49.85 792.478 47.96 803.258 47.96C810.258 47.96 817.608 48.94 825.308 50.9C833.148 52.72 839.938 55.24 845.678 58.46L834.968 84.29C829.788 81.63 824.538 79.32 819.218 77.36C814.038 75.4 808.648 74.42 803.048 74.42ZM926.846 200H892.826V76.52H856.496V50.06H963.176V76.52H926.846V200ZM1102.36 200H1068.13V135.32H1018.15V200H984.135V50.06H1018.15V108.86H1068.13V50.06H1102.36V200ZM1135.48 200V50.06H1169.5V107.6H1180.63C1193.23 107.6 1203.52 109.56 1211.5 113.48C1219.62 117.4 1225.64 122.79 1229.56 129.65C1233.48 136.51 1235.44 144.35 1235.44 153.17C1235.44 162.97 1233.27 171.37 1228.93 178.37C1224.73 185.37 1218.36 190.76 1209.82 194.54C1201.42 198.18 1190.85 200 1178.11 200H1135.48ZM1177.9 173.96C1185.46 173.96 1191.2 172.42 1195.12 169.34C1199.18 166.26 1201.21 160.87 1201.21 153.17C1201.21 147.85 1200.23 143.79 1198.27 140.99C1196.45 138.19 1193.79 136.3 1190.29 135.32C1186.79 134.2 1182.59 133.64 1177.69 133.64H1169.5V173.96H1177.9ZM1249.09 200V50.06H1283.11V200H1249.09ZM1433.33 0.709987C1432.63 7.98999 1430.6 14.43 1427.24 20.03C1423.88 25.49 1418.84 29.76 1412.12 32.84C1405.54 35.92 1396.72 37.46 1385.66 37.46C1374.6 37.46 1365.78 35.99 1359.2 33.05C1352.62 29.97 1347.72 25.7 1344.5 20.24C1341.42 14.78 1339.6 8.26999 1339.04 0.709987H1367.81C1368.37 8.40999 1370.12 13.52 1373.06 16.04C1376 18.56 1380.27 19.82 1385.87 19.82C1390.77 19.82 1394.83 18.49 1398.05 15.83C1401.41 13.03 1403.37 7.98999 1403.93 0.709987H1433.33ZM1316.36 50.06H1347.44V122.51C1347.44 126.01 1347.37 129.93 1347.23 134.27C1347.23 138.61 1347.16 142.88 1347.02 147.08C1346.88 151.14 1346.74 154.71 1346.6 157.79C1346.46 160.73 1346.25 162.76 1345.97 163.88H1346.81L1408.34 50.06H1448.03V200H1416.95V127.97C1416.95 124.19 1417.02 120.06 1417.16 115.58C1417.3 110.96 1417.44 106.55 1417.58 102.35C1417.72 98.15 1417.86 94.51 1418 91.43C1418.28 88.21 1418.49 86.11 1418.63 85.13H1418L1356.26 200H1316.36V50.06ZM604.66 433H566.23L519.61 356.98V433H485.59V283.06H519.61V355.72L564.97 283.06H601.93L554.47 355.09L604.66 433ZM620.736 283.06H651.816V355.51C651.816 359.01 651.746 362.93 651.606 367.27C651.606 371.61 651.536 375.88 651.396 380.08C651.256 384.14 651.116 387.71 650.976 390.79C650.836 393.73 650.626 395.76 650.346 396.88H651.186L712.716 283.06H752.406V433H721.326V360.97C721.326 357.19 721.396 353.06 721.536 348.58C721.676 343.96 721.816 339.55 721.956 335.35C722.096 331.15 722.236 327.51 722.376 324.43C722.656 321.21 722.866 319.11 723.006 318.13H722.376L660.636 433H620.736V283.06ZM901.119 433H867.099V309.52H836.439C835.879 315.96 835.179 322.96 834.339 330.52C833.499 338.08 832.589 345.78 831.609 353.62C830.629 361.32 829.579 368.67 828.459 375.67C827.479 382.53 826.499 388.62 825.519 393.94C823.839 402.62 821.459 410.04 818.379 416.2C815.299 422.36 811.099 427.05 805.779 430.27C800.599 433.49 793.879 435.1 785.619 435.1C782.819 435.1 780.229 434.89 777.849 434.47C775.469 434.05 773.159 433.49 770.919 432.79V406.75C772.599 407.31 774.209 407.8 775.749 408.22C777.429 408.64 779.109 408.85 780.789 408.85C783.169 408.85 785.199 407.94 786.879 406.12C788.559 404.3 790.099 401.22 791.499 396.88C792.899 392.4 794.299 386.24 795.699 378.4C796.259 375.04 796.959 370.28 797.799 364.12C798.779 357.82 799.829 350.47 800.949 342.07C802.069 333.53 803.259 324.29 804.519 314.35C805.779 304.27 806.969 293.84 808.089 283.06H901.119V433ZM1064.08 357.82C1064.08 369.44 1062.75 380.01 1060.09 389.53C1057.43 398.91 1053.37 407.03 1047.91 413.89C1042.45 420.75 1035.38 426 1026.7 429.64C1018.16 433.28 1008.01 435.1 996.251 435.1C984.631 435.1 974.551 433.28 966.011 429.64C957.471 425.86 950.401 420.61 944.801 413.89C939.341 407.03 935.211 398.84 932.411 389.32C929.751 379.8 928.421 369.23 928.421 357.61C928.421 342.07 930.801 328.56 935.561 317.08C940.461 305.6 947.951 296.71 958.031 290.41C968.111 283.97 980.921 280.75 996.461 280.75C1012.14 280.75 1024.95 283.97 1034.89 290.41C1044.83 296.71 1052.18 305.67 1056.94 317.29C1061.7 328.77 1064.08 342.28 1064.08 357.82ZM964.121 357.82C964.121 368.32 965.171 377.35 967.271 384.91C969.511 392.47 973.011 398.28 977.771 402.34C982.531 406.4 988.691 408.43 996.251 408.43C1003.95 408.43 1010.11 406.4 1014.73 402.34C1019.49 398.28 1022.92 392.47 1025.02 384.91C1027.26 377.35 1028.38 368.32 1028.38 357.82C1028.38 342 1025.86 329.61 1020.82 320.65C1015.92 311.69 1007.8 307.21 996.461 307.21C988.761 307.21 982.531 309.24 977.771 313.3C973.011 317.36 969.511 323.17 967.271 330.73C965.171 338.29 964.121 347.32 964.121 357.82ZM1138.01 283.06C1151.03 283.06 1161.74 284.32 1170.14 286.84C1178.54 289.22 1184.77 293.21 1188.83 298.81C1192.89 304.27 1194.92 311.69 1194.92 321.07C1194.92 326.67 1193.94 331.78 1191.98 336.4C1190.02 341.02 1187.36 344.8 1184 347.74C1180.78 350.68 1177.14 352.57 1173.08 353.41V354.46C1177.28 355.44 1181.27 357.19 1185.05 359.71C1188.97 362.23 1192.12 365.87 1194.5 370.63C1196.88 375.39 1198.07 381.69 1198.07 389.53C1198.07 398.63 1195.9 406.47 1191.56 413.05C1187.36 419.49 1181.34 424.46 1173.5 427.96C1165.66 431.32 1156.28 433 1145.36 433H1091.6V283.06H1138.01ZM1139.9 342.49C1147.46 342.49 1152.71 341.02 1155.65 338.08C1158.59 335.14 1160.06 330.87 1160.06 325.27C1160.06 319.53 1158.31 315.4 1154.81 312.88C1151.45 310.36 1146.13 309.1 1138.85 309.1H1125.62V342.49H1139.9ZM1125.62 367.69V406.75H1142C1149.84 406.75 1155.3 404.93 1158.38 401.29C1161.46 397.51 1163 392.54 1163 386.38C1163 382.6 1162.3 379.31 1160.9 376.51C1159.64 373.71 1157.4 371.54 1154.18 370C1151.1 368.46 1146.76 367.69 1141.16 367.69H1125.62ZM1310.8 433L1302.19 397.3H1253.68L1244.86 433H1207.9L1255.78 282.43H1299.46L1347.55 433H1310.8ZM1284.97 335.77C1284.13 332.83 1283.29 329.75 1282.45 326.53C1281.61 323.31 1280.77 319.95 1279.93 316.45C1279.23 312.95 1278.53 309.38 1277.83 305.74C1277.27 309.38 1276.57 313.02 1275.73 316.66C1274.89 320.16 1274.05 323.52 1273.21 326.74C1272.51 329.96 1271.74 332.97 1270.9 335.77L1261.24 370.63H1294.84L1284.97 335.77ZM1408.37 433H1374.35V309.52H1338.02V283.06H1444.7V309.52H1408.37V433ZM1527.72 433H1493.7V309.52H1457.37V283.06H1564.05V309.52H1527.72V433Z" fill="white"/>
<path d="M0.551758 154.157L113.947 154.157L186.939 404.89L141.481 433.039L0.551758 154.157Z" fill="url(#paint0_linear_195_9)"/>
<path d="M368.053 61.6267L239.837 61.626L141.553 433.041L187.052 404.541L368.053 61.6267Z" fill="url(#paint1_linear_195_9)"/>
<defs>
<linearGradient id="paint0_linear_195_9" x1="66.3457" y1="189.301" x2="79.6023" y2="420.52" gradientUnits="userSpaceOnUse">
<stop stop-color="#4771AF"/>
<stop offset="1" stop-color="#07B9DB"/>
</linearGradient>
<linearGradient id="paint1_linear_195_9" x1="315.137" y1="95.3697" x2="172.113" y2="411.613" gradientUnits="userSpaceOnUse">
<stop stop-color="#F7EF5F"/>
<stop offset="1" stop-color="#0BA62E"/>
</linearGradient>
</defs>
</svg>
